<?xml version="1.0" encoding="UTF-8"?>
<svg version="1.1" xmlns="http://www.w3.org/2000/svg" width="1412" height="1101">
<path d="M0 0 C1.86853984 -0.00302832 1.86853984 -0.00302832 3.77482796 -0.00611782 C7.21325333 -0.00856303 10.65114356 0.00246335 14.08949518 0.01944566 C17.79475319 0.03455638 21.50000842 0.03251012 25.20529175 0.03276062 C32.44807689 0.03609281 39.69072771 0.05595381 46.93346465 0.08159167 C52.84205314 0.10212288 58.7506243 0.11592874 64.65924072 0.12527466 C65.92428965 0.1272939 65.92428965 0.1272939 67.21489513 0.12935394 C68.06119491 0.13070266 68.9074947 0.13205138 69.77943993 0.13344097 C136.96378774 0.24053618 204.14742133 0.65852886 271.32904243 1.25923157 C280.46214422 1.34029314 289.59528558 1.41031688 298.72851372 1.47535038 C306.74576505 1.53322848 314.76280345 1.60570248 322.77984619 1.68728638 C325.79330246 1.71752319 328.80669837 1.74164381 331.82025146 1.75973511 C335.75800746 1.78370082 339.6952921 1.83017178 343.6328125 1.87988281 C345.26367798 1.88470924 345.26367798 1.88470924 346.92749023 1.88963318 C356.70020165 2.05152637 365.78495371 4.09053279 373.515625 10.35644531 C375.28559616 12.21593226 376.9218288 14.14439885 378.55200195 16.12719727 C380.45799463 18.29101911 382.42643551 20.10863889 384.609375 21.98925781 C392.98218469 29.43991148 400.7520788 37.52630234 408.640625 45.48144531 C411.82775116 48.69535941 415.01831124 51.90580834 418.2109375 55.11425781 C419.28313034 56.19889816 419.28313034 56.19889816 420.37698364 57.30545044 C423.65451023 60.59871614 426.96264587 63.7921149 430.48388672 66.82470703 C434.984666 70.7053817 439.15043255 74.88342448 443.328125 79.10644531 C444.54786011 80.33186035 444.54786011 80.33186035 445.79223633 81.58203125 C449.2373984 85.04339574 452.6765279 88.51073122 456.11621094 91.97753906 C458.64309008 94.52259719 461.17303815 97.06457663 463.703125 99.60644531 C464.85035034 100.76611816 464.85035034 100.76611816 466.02075195 101.94921875 C470.05444988 106.00106057 474.1810305 109.84769374 478.51220703 113.57788086 C482.2020441 116.85358925 485.64113936 120.38072104 489.109375 123.88769531 C490.29581604 125.07981628 490.29581604 125.07981628 491.50622559 126.29602051 C494.85581073 129.66180079 498.1993577 133.03355579 501.54345703 136.40478516 C504.00083439 138.88034759 506.46128558 141.35282614 508.921875 143.82519531 C509.66481812 144.57643677 510.40776123 145.32767822 511.17321777 146.10168457 C514.52464296 149.46860724 517.90162621 152.74202402 521.50195312 155.84277344 C525.99751491 159.71648826 530.15641833 163.8894752 534.328125 168.10644531 C535.54786011 169.33186035 535.54786011 169.33186035 536.79223633 170.58203125 C540.2373984 174.04339574 543.6765279 177.51073122 547.11621094 180.97753906 C549.64309008 183.52259719 552.17303815 186.06457663 554.703125 188.60644531 C555.46794189 189.37956055 556.23275879 190.15267578 557.02075195 190.94921875 C561.10591281 195.05275499 565.28591746 198.95466558 569.67327881 202.73226929 C572.41683472 205.15093401 574.95423699 207.74506848 577.4921875 210.37597656 C578.58677426 211.4929692 579.68184214 212.60949054 580.77734375 213.72558594 C582.45340548 215.43840127 584.12617409 217.15397478 585.79052734 218.87817383 C601.04200595 234.64861062 619.74317422 249.80049621 642.7109375 250.44628906 C657.77109345 249.69520712 667.06770163 242.11911303 677.2265625 231.80566406 C678.64329086 230.38098589 680.06002194 228.95631042 681.47690773 227.53178883 C683.45250335 225.54310936 685.42350559 223.54990833 687.39447021 221.55664062 C690.83333306 218.07975992 694.27693284 214.60758833 697.72427368 211.13911438 C699.55471948 209.29653308 701.38248662 207.45128556 703.2071228 205.60295105 C704.04804474 204.7554982 704.88896667 203.90804535 705.75537109 203.03491211 C706.48339935 202.29863083 707.21142761 201.56234955 707.96151733 200.80375671 C710.0011583 198.84940034 712.06786892 197.0032432 714.20779419 195.1632843 C719.09377795 190.91685753 723.63916279 186.35778919 728.20117188 181.76855469 C729.14479997 180.82300269 730.0886595 179.8776816 731.0327301 178.93257141 C733.05024955 176.91191367 735.06621051 174.88971887 737.08094788 172.86628723 C740.27346098 169.66014074 743.46988418 166.45791118 746.66687012 163.25622559 C753.45277006 156.45927107 760.23442274 149.65808615 767.015625 142.85644531 C774.33897669 135.511021 781.66307533 128.16635067 788.99208307 120.82656908 C792.16334108 117.65035972 795.33215227 114.47173611 798.49904633 111.29117584 C800.47649216 109.30621741 802.45605558 107.32338088 804.43617058 105.34108543 C805.77696078 103.99756158 807.11522558 102.6515189 808.4533844 101.30537415 C812.70440591 97.05398521 817.02891283 92.98204674 821.58608437 89.06209755 C825.02109342 86.02565936 828.22008156 82.75689256 831.44116211 79.49682617 C832.18865219 78.74466324 832.93614227 77.99250031 833.70628357 77.21754456 C835.31581617 75.59757735 836.92424318 73.97651105 838.53166008 72.3544445 C841.08140686 69.78251657 843.63523735 67.21471019 846.19032288 64.64808655 C853.45011469 57.35484763 860.70571429 50.05747943 867.95092773 42.74975586 C872.39513734 38.2677891 876.84672149 33.79326007 881.30304146 29.32333565 C882.99261228 27.6257425 884.67940857 25.925383 886.3632946 24.2221508 C888.72216245 21.83664691 891.09032252 19.46073663 893.46069336 17.08666992 C894.487341 16.04148697 894.487341 16.04148697 895.534729 14.97518921 C907.94465635 2.61585291 907.94465635 2.61585291 916.08146667 2.23696899 C917.6251165 2.24124405 917.6251165 2.24124405 919.19995117 2.24560547 C920.9579882 2.24746353 920.9579882 2.24746353 922.75154114 2.24935913 C924.66696968 2.25982773 924.66696968 2.25982773 926.62109375 2.27050781 C927.96648584 2.27479509 929.31187877 2.27882867 930.65727234 2.28262329 C934.94346672 2.29748482 939.22952328 2.3249923 943.515625 2.35644531 C944.55711071 2.36405128 944.55711071 2.36405128 945.61963654 2.37181091 C954.6229682 2.44008231 963.62551809 2.5449715 972.62817383 2.67382812 C975.46570022 2.71400329 978.30321585 2.74844691 981.14086914 2.77832031 C984.65747111 2.81535913 988.17383852 2.86164019 991.69023705 2.91450882 C993.62929809 2.94151772 995.56847709 2.95959986 997.50764465 2.97738647 C1014.07635361 3.25548262 1014.07635361 3.25548262 1020.890625 7.66894531 C1021.51710938 8.05695312 1022.14359375 8.44496094 1022.7890625 8.84472656 C1026.08979134 11.73473123 1027.39462715 14.34219862 1027.9140625 18.69628906 C1027.90632813 19.88351563 1027.89859375 21.07074219 1027.890625 22.29394531 C1027.89835937 23.47859375 1027.90609375 24.66324219 1027.9140625 25.88378906 C1027.20677336 32.04829935 1024.28835877 35.95882706 1019.98337269 40.26063442 C1019.52982378 40.71794446 1019.07627487 41.1752545 1018.60898206 41.64642242 C1017.09113569 43.17319434 1015.56285516 44.68906132 1014.03437805 46.20518494 C1012.93140471 47.31018324 1011.82908937 48.41583866 1010.72737569 49.52209288 C1007.70069589 52.55741879 1004.66473867 55.583314 1001.62717927 58.60774696 C998.35169504 61.87233307 995.08487355 65.14556777 991.81697083 68.41773987 C985.41398635 74.82635949 979.00305384 81.22697126 972.5894557 87.62496703 C965.11934654 95.07753857 957.65730118 102.5381623 950.19562831 109.99917883 C936.87875154 123.31436715 923.55482358 136.62247705 910.22680664 149.92651367 C897.29851671 162.83155938 884.37476826 175.74112928 871.45629883 188.65600586 C870.66109541 189.45098651 869.86589199 190.24596716 869.0465915 191.06503814 C867.44460165 192.66658538 865.84261209 194.26813291 864.24062283 195.86968074 C863.45033867 196.65974533 862.6600545 197.44980993 861.84582233 198.26381588 C861.05751648 199.05190574 860.26921063 199.83999561 859.45701673 200.65196699 C847.14203912 212.96324015 834.82323475 225.27068378 822.50390554 237.57760228 C818.04157699 242.03550055 813.57974353 246.49389364 809.11825404 250.95263164 C802.03827334 258.02817283 794.95661888 265.10202999 787.87159238 272.1725189 C784.63501022 275.40251026 781.39918821 278.63325278 778.16550446 281.86614609 C775.20236425 284.8284958 772.23691011 287.78850886 769.26962473 290.74670631 C768.19940873 291.81442696 767.1300134 292.88297099 766.0615472 293.95244264 C760.38531409 299.6329833 754.63289393 305.14942713 748.515625 310.35644531 C747.44317426 311.30455296 746.37251401 312.25469503 745.3046875 313.20800781 C717.2519453 337.93761292 690.2348754 351.73509485 652.40234375 351.62207031 C650.7848349 351.62416566 649.16732678 351.62690214 647.54981995 351.63020325 C643.05766168 351.635796 638.56564094 351.62662325 634.07350159 351.6137886 C631.17224846 351.60636632 628.27101214 351.60272811 625.36975098 351.60006714 C560.27992466 351.52939475 495.18736748 350.5069634 430.10505426 349.58468604 C420.62610998 349.45048939 411.14714946 349.32554627 401.66786885 349.21751434 C395.61780321 349.14851954 389.56782381 349.07399924 383.51787639 348.99531907 C380.02420012 348.95020405 376.53055277 348.90804211 373.03675079 348.87388802 C337.5254595 348.51311271 337.5254595 348.51311271 321.890625 344.10644531 C321.09978516 343.88883545 320.30894531 343.67122559 319.49414062 343.44702148 C289.43146047 334.91089181 265.76569808 318.07718317 244.23022461 296.03491211 C241.54030208 293.29806475 238.79443047 290.70742919 235.875 288.21582031 C229.55759755 282.75399359 223.79675138 276.69306778 217.93359375 270.75390625 C211.00240055 263.67180916 211.00240055 263.67180916 203.671875 257.01269531 C196.37600817 250.78708993 189.8106923 243.70205034 183.06982422 236.89013672 C181.16846933 234.9705319 179.26398836 233.05406632 177.359375 231.13769531 C176.79142212 230.56144409 176.22346924 229.98519287 175.63830566 229.39147949 C172.72591663 226.46173087 169.7552186 223.66257373 166.625 220.96582031 C162.1802624 217.12152854 158.05247068 213.00192788 153.921875 208.82519531 C153.13091431 208.030448 152.33995361 207.23570068 151.52502441 206.41687012 C148.17543927 203.05108983 144.8318923 199.67933483 141.48779297 196.30810547 C139.03041561 193.83254304 136.56996442 191.36006449 134.109375 188.88769531 C133.36643188 188.13645386 132.62348877 187.3852124 131.85803223 186.61120605 C131.14369019 185.89356079 130.42934814 185.17591553 129.69335938 184.43652344 C129.07795288 183.81588013 128.46254639 183.19523682 127.82849121 182.55578613 C125.918722 180.73975659 123.97577659 179.0275532 121.9756012 177.31443787 C116.39043002 172.45281465 111.20581355 167.18654526 105.97827148 161.94848633 C104.8359605 160.80753287 103.69343744 159.66679171 102.55072021 158.52624512 C99.4679115 155.44796889 96.38824267 152.36656965 93.30929065 149.28443646 C90.0749712 146.0475717 86.83819714 142.81316292 83.6018219 139.57835388 C78.16902814 134.1473755 72.73833717 128.71430113 67.30883789 123.2800293 C61.0463819 117.01213191 54.78033179 110.74784491 48.51240295 104.48542076 C43.11499942 99.09256638 37.71956105 93.69775173 32.32573754 88.30131668 C29.11123494 85.08526122 25.8960752 81.86987054 22.67913628 78.65625191 C19.65381903 75.6338396 16.63098958 72.60896034 13.61000061 69.58222198 C12.50597466 68.47688244 11.40111299 67.37237684 10.29532051 66.26880455 C5.00293963 60.98606461 -0.22735149 55.69100047 -5.0764761 49.9922781 C-6.44705058 48.39981243 -7.86676172 46.88120947 -9.328125 45.37207031 C-18.56744126 35.75231162 -25.98816409 26.2076817 -25.8203125 12.30957031 C-25.29172473 7.66291503 -24.11654615 6.30758437 -20.484375 3.35644531 C-13.60922155 0.06727357 -7.54334097 -0.06008053 0 0 Z " fill="#002DFF" transform="translate(204.484375,-0.3564453125)"/>
<path d="M0 0 C2.86685183 -0.00194059 5.73370363 -0.00391446 8.60055542 -0.0059185 C9.31157119 -0.00640532 10.02258695 -0.00689213 10.75514865 -0.0073937 C22.46812233 -0.01582935 34.18099866 -0.04150028 45.89392918 -0.07349918 C58.12695488 -0.10663427 70.35993015 -0.12458087 82.59300089 -0.1277768 C89.38141311 -0.12991901 96.16965314 -0.13881467 102.95802307 -0.16423798 C109.2760255 -0.18756688 115.59375833 -0.1917327 121.91179276 -0.18147659 C124.21069365 -0.18098398 126.5096084 -0.18722257 128.80846786 -0.20103264 C160.84895713 -0.38270963 191.11514624 10.47902607 214.41403198 33.12127876 C216.21109673 34.90597077 217.96552789 36.71824919 219.71481323 38.55096626 C221.80266161 40.64478845 223.88546868 42.55808779 226.12533569 44.47589302 C230.35934422 48.16445781 234.34059293 52.05680071 238.29489136 56.04120064 C239.03423416 56.78200371 239.77357697 57.52280678 240.5353241 58.28605843 C242.12690062 59.88141569 243.71732179 61.47792626 245.3066864 63.07548714 C247.82748989 65.60915163 250.35148914 68.13959386 252.87631226 70.6692524 C259.14379317 76.95004392 265.40580355 83.23628052 271.66799927 89.52234077 C276.96962052 94.84374464 282.27331961 100.16306123 287.57975769 105.47966194 C290.05665685 107.96300562 292.5305054 110.44936048 295.00424194 112.93585396 C296.53456934 114.46981659 298.06503883 116.00363748 299.59567261 117.53729439 C300.27434891 118.22113701 300.95302521 118.90497963 301.65226746 119.60954475 C305.46054208 123.41823411 309.38591208 127.01149276 313.46141815 130.53122902 C316.84701333 133.53140416 320.01776114 136.7394838 323.20309448 139.94940376 C323.93268372 140.68045326 324.66227295 141.41150276 325.41397095 142.16470528 C326.98426683 143.73878137 328.55340738 145.31401074 330.12149048 146.89029121 C332.60868785 149.39035201 335.09908291 151.88718824 337.59030151 154.38324165 C343.77430752 160.58055677 349.95284196 166.78331766 356.13156128 172.98590279 C361.36272167 178.23684748 366.59596106 183.48570363 371.8319397 188.73184395 C374.27560078 191.1819485 376.71621047 193.63506444 379.15670776 196.08831978 C380.66681214 197.60205946 382.17705865 199.11565736 383.68746948 200.62909126 C384.35679504 201.30358315 385.02612061 201.97807503 385.71572876 202.67300606 C388.86819762 205.82582275 392.06470302 208.86888995 395.43954468 211.78351021 C399.57839792 215.35869736 403.44358109 219.16057285 407.29489136 223.04120064 C408.03423416 223.78200371 408.77357697 224.52280678 409.5353241 225.28605843 C411.12690062 226.88141569 412.71732179 228.47792626 414.3066864 230.07548714 C416.82748989 232.60915163 419.35148914 235.13959386 421.87631226 237.6692524 C428.14379317 243.95004392 434.40580355 250.23628052 440.66799927 256.52234077 C445.96962052 261.84374464 451.27331961 267.16306123 456.57975769 272.47966194 C459.05665685 274.96300562 461.5305054 277.44936048 464.00424194 279.93585396 C465.53456934 281.46981659 467.06503883 283.00363748 468.59567261 284.53729439 C469.27434891 285.22113701 469.95302521 285.90497963 470.65226746 286.60954475 C474.50346804 290.46116474 478.45835991 294.12985857 482.59168243 297.67766762 C503.03279957 315.44984146 503.03279957 315.44984146 504.92965698 327.32049751 C505.24818114 332.26987283 505.117971 336.23434503 502.07028198 340.28924751 C493.71776445 347.86139488 483.68047218 347.87465735 472.99765015 347.83082771 C471.44108711 347.83902773 469.88453236 347.8489473 468.32799006 347.86042708 C464.07141733 347.88672668 459.81514881 347.88824675 455.55850911 347.88544142 C450.95989546 347.8866859 446.36139099 347.91081369 441.76283264 347.93174934 C432.7624382 347.96876699 423.76214111 347.98353181 414.76167715 347.98922388 C407.44552849 347.99386267 400.12941329 348.00445377 392.8132782 348.01920319 C372.06075433 348.06015876 351.30831214 348.08325089 330.55574793 348.08507828 C328.87902383 348.08523262 328.87902383 348.08523262 327.16842651 348.08539009 C326.04924286 348.08548888 324.93005921 348.08558767 323.77696091 348.08568945 C305.62940331 348.08842021 287.48224532 348.13461323 269.33481604 348.20016471 C250.69148184 348.26697098 232.04834453 348.30015124 213.40488768 348.29872531 C202.94166911 348.29864601 192.478901 348.31262178 182.01579285 348.36307907 C173.11005798 348.40579685 164.20495542 348.41744098 155.29915249 348.3888127 C150.75674262 348.37511165 146.21556549 348.37585808 141.67328453 348.41592979 C137.51143307 348.45228236 133.35177358 348.44676614 129.18995875 348.40848669 C127.68805734 348.40192734 126.18599479 348.41044351 124.684295 348.43591128 C117.15106728 348.55529392 111.6311353 348.21089459 105.75565529 342.98867702 C104.29071961 341.44848848 102.8524641 339.88237519 101.44528198 338.28924751 C99.98276416 336.8470284 98.51272536 335.41235151 97.03167725 333.98916817 C95.53269376 332.49003908 94.03639051 330.98822635 92.54244995 329.48407173 C91.71503296 328.65519447 90.88761597 327.82631721 90.03512573 326.97232246 C88.25751018 325.19093173 86.48104956 323.40838787 84.70565414 321.62478447 C81.89065829 318.79690966 79.07251581 315.97219267 76.25341797 313.14840889 C70.27270768 307.15667595 64.29626878 301.16069098 58.32028198 295.16424751 C51.85837711 288.68024124 45.39570151 282.19701363 38.92812073 275.7186681 C35.68497136 272.46978442 32.44575153 269.21701359 29.20721436 265.9635334 C27.50140029 264.25408491 25.7954446 262.54477773 24.08932495 260.83563423 C23.32963409 260.07077705 22.56994324 259.30591988 21.78723145 258.51788521 C18.51777856 255.24811228 15.23330333 252.06236954 11.7149353 249.06088448 C5.66033697 243.83761783 0.11766152 238.06687956 -5.51321411 232.39666939 C-6.80825606 231.09642621 -8.10354589 229.79642988 -9.39906311 228.49666023 C-12.17604073 225.70978674 -14.95154143 222.92145371 -17.72596359 220.13203621 C-22.11955137 215.71526563 -26.51811979 211.30347789 -30.91766357 206.89264107 C-43.42342581 194.3535433 -55.9249931 181.81028453 -68.41604614 169.25653267 C-75.32437119 162.31361511 -82.23809872 155.37612489 -89.15781271 148.44455767 C-93.52650184 144.06780201 -97.88855909 139.68457814 -102.24576926 135.29639626 C-104.96521195 132.56086951 -107.69100613 129.83174033 -110.41859627 127.1043396 C-111.67485364 125.84567466 -112.92855953 124.58445668 -114.17939949 123.32040787 C-127.35522903 110.01135691 -142.32639904 97.55270052 -161.92971802 96.85174751 C-179.05077326 97.35412589 -190.29908152 107.52740052 -201.75393677 119.23065376 C-203.15980931 120.64663833 -204.56568431 122.06262047 -205.97169971 123.47846317 C-207.91147018 125.43558838 -209.84415633 127.39963569 -211.77688599 129.3637104 C-215.16897087 132.80835508 -218.57115267 136.243016 -221.9750824 139.675951 C-223.77817694 141.4958176 -225.57816407 143.31877024 -227.37446594 145.14534187 C-228.19924942 145.97988396 -229.0240329 146.81442604 -229.87380981 147.67425728 C-230.94323067 148.76058197 -230.94323067 148.76058197 -232.03425598 149.86885262 C-234.05830923 151.81254709 -236.11019788 153.64510305 -238.2361908 155.47270393 C-243.15854393 159.75043018 -247.73610805 164.34584639 -252.33206177 168.96893501 C-253.28554199 169.92433907 -254.23925359 170.87951227 -255.19317627 171.83447456 C-257.23197641 173.87641335 -259.26921809 175.91988941 -261.30523682 177.96460152 C-264.53135578 181.20435205 -267.76138324 184.44018731 -270.99197388 187.67547798 C-277.84920315 194.54376257 -284.7021856 201.41627731 -291.55471802 208.28924751 C-298.95505922 215.71166036 -306.35614683 223.13331985 -313.76214314 230.55009079 C-316.96685235 233.7597519 -320.16911476 236.97182758 -323.36946106 240.1858387 C-325.36766631 242.19155562 -327.36798832 244.1951515 -329.36886215 246.19820595 C-330.72396544 247.55604342 -332.07654348 248.91639963 -333.42901611 250.27685738 C-337.69985325 254.54805988 -342.04206902 258.64149764 -346.6208477 262.57926559 C-350.10039574 265.65597874 -353.34017263 268.9699895 -356.60379028 272.27240181 C-357.36424652 273.0375309 -358.12470276 273.80265999 -358.90820312 274.59097481 C-360.5455686 276.23877562 -362.18182877 277.88767534 -363.81707954 279.53757477 C-366.4082914 282.15095132 -369.0035741 284.76021989 -371.60011292 287.3683033 C-378.97753892 294.77919759 -386.35073536 302.19425941 -393.71365356 309.61956978 C-398.22921474 314.17281144 -402.75208663 318.71868052 -407.27970695 323.25992966 C-408.99883275 324.9870953 -410.71518019 326.71703109 -412.42865181 328.44980621 C-414.82390333 330.87158543 -417.22834573 333.28387655 -419.63504028 335.69427681 C-420.33601334 336.40760674 -421.03698639 337.12093666 -421.75920105 337.85588264 C-427.80678928 343.87902764 -432.70983214 347.70550297 -441.53378296 347.84247017 C-442.40927795 347.83594429 -443.28477295 347.82941841 -444.1867981 347.82269478 C-445.12760727 347.83131035 -446.06841644 347.83992592 -447.03773499 347.84880257 C-450.13352341 347.87141844 -453.2284031 347.86473011 -456.32424927 347.85565376 C-458.48747525 347.86089227 -460.65069895 347.86716958 -462.81391907 347.87443733 C-467.34392049 347.88483428 -471.87360767 347.88029152 -476.40359497 347.86566353 C-482.19051522 347.8485007 -487.97644022 347.87194453 -493.7632494 347.90715313 C-498.23045859 347.92918587 -502.69743196 347.92767098 -507.16467857 347.91938782 C-509.29718808 347.91857107 -511.42971538 347.92538132 -513.56217384 347.94015884 C-536.39112282 348.07408451 -536.39112282 348.07408451 -546.17971802 339.16424751 C-549.0326796 335.40648955 -549.45539398 331.89503746 -549.09074402 327.2525959 C-547.30798172 317.39683186 -539.01152244 310.21763448 -532.15237427 303.53143501 C-531.14543015 302.53452737 -530.13946241 301.53663267 -529.13441467 300.53781319 C-526.50721541 297.93136186 -523.86866279 295.33673563 -521.22689819 292.74505806 C-517.00123756 288.59518469 -512.79435161 284.42625935 -508.5855999 280.25925255 C-507.12933841 278.82042666 -505.66880303 277.38606775 -504.20732117 275.95254707 C-503.30626144 275.06447365 -502.40520172 274.17640022 -501.47683716 273.26141548 C-500.69329361 272.49215736 -499.90975006 271.72289925 -499.10246277 270.93033028 C-497.09648811 268.85086564 -495.20590687 266.74839729 -493.32337952 264.56088448 C-489.20363033 259.81622438 -484.78935734 255.39861333 -480.33401489 250.97088814 C-478.9573372 249.59645195 -477.58065963 248.22201562 -476.20398712 246.84757423 C-474.73872445 245.38566036 -473.27222035 243.92500258 -471.80534363 242.46470833 C-468.73361309 239.40661887 -465.66580653 236.34461257 -462.59854126 233.28204536 C-455.5344206 226.22991382 -448.46527253 219.18282895 -441.39606476 212.1357975 C-434.91153119 205.67150152 -428.42809318 199.20611649 -421.94870996 192.73665762 C-418.90630762 189.69920435 -415.86149242 186.66419802 -412.81473541 183.63111305 C-411.37326486 182.19533927 -409.93297047 180.75839775 -408.49317932 179.32094002 C-406.74730958 177.5779129 -404.99966564 175.83666005 -403.24980164 174.0976429 C-399.73765477 170.58581263 -396.30140703 167.05985778 -393.06045532 163.29498482 C-389.01368833 158.59505084 -384.6393486 154.24926783 -380.24221802 149.87909126 C-378.85056891 148.48968366 -377.45891993 147.10027591 -376.067276 145.71086311 C-374.58585159 144.23278785 -373.10318578 142.75596849 -371.62014771 141.27951241 C-368.51481321 138.187817 -365.41340088 135.0922065 -362.31253052 131.99603462 C-355.17100417 124.8664983 -348.02445078 117.74200806 -340.87783813 110.61757088 C-334.32239161 104.08236089 -327.76803993 97.54606248 -321.21774292 91.00569057 C-318.14188882 87.93478613 -315.06362149 84.8663286 -311.9834137 81.79979134 C-310.52616841 80.34824222 -309.07009873 78.89552581 -307.61453247 77.44229317 C-305.84936522 75.67996904 -304.08242326 73.91941973 -302.31326294 72.1611042 C-298.05094007 67.89916147 -293.9418367 63.56806723 -290.0222187 58.9878006 C-265.18350455 30.23832542 -233.89396791 6.9423583 -195.55471802 1.28924751 C-193.30691465 1.17988335 -191.05659141 1.11701372 -188.80630493 1.08888435 C-188.1470947 1.07948336 -187.48788447 1.07008237 -186.80869818 1.06039649 C-184.59190963 1.03018102 -182.37510755 1.00687649 -180.15823364 0.98382759 C-178.53892703 0.96390003 -176.91962371 0.94370353 -175.30032349 0.92326355 C-170.81034464 0.86843947 -166.32031567 0.82088234 -161.83023262 0.77547622 C-158.93464607 0.74601091 -156.0390777 0.71509907 -153.14350891 0.68394089 C-102.0974396 0.14164417 -51.04855402 0.0338765 0 0 Z " fill="#AF3100" transform="translate(728.5547180175781,371.7107524871826)"/>
<path d="M0 0 C94.6 0 94.6 0 118.1875 16.1875 C124.53981915 22.53981915 128.86247504 30.28547517 131 39 C131.18304687 39.74378906 131.36609375 40.48757813 131.5546875 41.25390625 C133.85411747 55.4337244 132.00684863 70.87008449 124 83 C117.81915891 90.77847369 111.25280331 96.47815019 103 102 C103.31446075 102.46542709 103.62892151 102.93085419 103.95291138 103.41038513 C112.67429278 116.31985737 121.38567715 129.23603973 130.0869751 142.15905762 C131.32561423 143.99850174 132.56449043 145.83778625 133.8036499 147.67687988 C136.99993804 152.42082181 140.19190296 157.16759788 143.37567139 161.91995239 C144.33259271 163.34687936 145.29112747 164.77272567 146.25128174 166.19747925 C147.57423712 168.16131618 148.89140232 170.1289065 150.20703125 172.09765625 C150.59622238 172.67270905 150.98541351 173.24776184 151.38639832 173.84024048 C154 177.77148053 154 177.77148053 154 180 C103.88894637 184.51094953 103.88894637 184.51094953 94.03515625 177.80126953 C88.31768747 171.9286992 85.82503912 164.604558 83.40380859 156.94091797 C81.33396102 150.70316675 77.78647724 145.22354115 74.40087891 139.62902832 C72.68729377 136.76901705 71.06232087 133.86180401 69.42578125 130.95703125 C67.37770636 127.35497177 65.27780752 123.81326377 63.04296875 120.32421875 C61 117 61 117 61 115 C57.04 115 53.08 115 49 115 C49 136.45 49 157.9 49 180 C32.83 180 16.66 180 0 180 C0 120.6 0 61.2 0 0 Z M49 38 C49 50.87 49 63.74 49 77 C64.26849322 77.76775557 64.26849322 77.76775557 76.90234375 71.31640625 C82.05662626 65.67701479 82.43286163 60.56332147 82.33203125 53.046875 C81.73010683 47.52333326 79.57761776 44.12487459 75.33203125 40.625 C67.20380919 35.95248912 58.24607666 38 49 38 Z " fill="#AF3100" transform="translate(1088,802)"/>
<path d="M0 0 C94.6 0 94.6 0 118.1875 16.1875 C124.53981915 22.53981915 128.86247504 30.28547517 131 39 C131.18304687 39.74378906 131.36609375 40.48757813 131.5546875 41.25390625 C133.85411747 55.4337244 132.00684863 70.87008449 124 83 C117.81915891 90.77847369 111.25280331 96.47815019 103 102 C103.31446075 102.46542709 103.62892151 102.93085419 103.95291138 103.41038513 C130.71504913 143.02395761 130.71504913 143.02395761 143.37567139 161.97488403 C144.33341991 163.40808933 145.29195675 164.84076814 146.25128174 166.2729187 C147.57219392 168.24550669 148.89009819 170.22006655 150.20703125 172.1953125 C150.59622238 172.77552658 150.98541351 173.35574066 151.38639832 173.95353699 C154 177.88534445 154 177.88534445 154 179 C135.19 179 116.38 179 97 179 C92.71 171.41 88.42 163.82 84 156 C81.59459114 151.82563288 79.18580409 147.65625493 76.75 143.5 C76.17427246 142.51370605 75.59854492 141.52741211 75.00537109 140.51123047 C72.40486513 136.06515727 69.78813465 131.63072412 67.1171875 127.2265625 C66.47765137 126.17178711 66.47765137 126.17178711 65.82519531 125.09570312 C65.05036402 123.82344149 64.27135791 122.55370866 63.48730469 121.28710938 C61 117.21610054 61 117.21610054 61 115 C57.04 115 53.08 115 49 115 C49 136.12 49 157.24 49 179 C32.83 179 16.66 179 0 179 C0 119.93 0 60.86 0 0 Z M49 38 C49 50.87 49 63.74 49 77 C64.26849322 77.76775557 64.26849322 77.76775557 76.90234375 71.31640625 C82.05662626 65.67701479 82.43286163 60.56332147 82.33203125 53.046875 C81.73010683 47.52333326 79.57761776 44.12487459 75.33203125 40.625 C67.20380919 35.95248912 58.24607666 38 49 38 Z " fill="#002DFF" transform="translate(551,802)"/>
<path d="M0 0 C1.15249741 0.00222061 2.30499481 0.00444122 3.49241638 0.00672913 C5.4443264 0.00684242 5.4443264 0.00684242 7.43566895 0.00695801 C8.86661313 0.01206543 10.29755694 0.01728144 11.72850037 0.02259827 C13.18438672 0.02446249 14.64027369 0.02588637 16.09616089 0.02688599 C19.93488791 0.03071086 23.77357731 0.04054088 27.61228943 0.05158997 C31.52667227 0.06180474 35.44106117 0.06638375 39.35545349 0.07142639 C47.04101755 0.08216318 54.72655057 0.09923923 62.41209412 0.12025452 C65.30831117 7.10582566 67.82988176 14.15381502 70.15818787 21.34681702 C70.51779099 22.44796341 70.8773941 23.5491098 71.24789429 24.68362427 C72.24196118 27.72876034 73.23322473 30.77479317 74.22354889 33.82114792 C75.97258457 39.19668782 77.73070901 44.5692699 79.48686218 49.94248772 C80.20886515 52.15189068 80.93048317 54.36141915 81.65208435 56.57095337 C88.00452753 76.01596038 94.41373605 95.44230834 100.81869888 114.87006378 C102.09627477 118.74567438 103.37333613 122.62145444 104.65039539 126.4972353 C105.87229701 130.20540392 107.09450762 133.91347064 108.31682014 137.62150383 C108.88330259 139.34008039 109.44970626 141.05868292 110.01601982 142.77731514 C110.54797954 144.39156461 111.08011016 146.00575777 111.61242199 147.61989117 C112.12187307 149.16497997 112.6308383 150.71022906 113.13927937 152.25565052 C114.4520206 156.23936961 115.78128325 160.21673704 117.13261414 164.18754578 C117.55189147 165.42564483 117.55189147 165.42564483 117.97963905 166.68875599 C118.51453937 168.26618375 119.05308013 169.84238325 119.59581566 171.41713238 C120.61800003 174.43810181 121.41209412 176.9075891 121.41209412 180.12025452 C103.59209412 180.12025452 85.77209412 180.12025452 67.41209412 180.12025452 C66.09209412 175.23212952 64.77209412 170.34400452 63.41209412 165.30775452 C62.99443787 163.76885559 62.57678162 162.22995667 62.14646912 160.64442444 C61.82162537 159.43375305 61.49678162 158.22308167 61.16209412 156.97572327 C60.65935974 155.11403503 60.65935974 155.11403503 60.14646912 153.21473694 C59.41209412 150.12025452 59.41209412 150.12025452 59.41209412 147.12025452 C40.27209412 147.12025452 21.13209412 147.12025452 1.41209412 147.12025452 C0.75209412 150.75025452 0.09209412 154.38025452 -0.58790588 158.12025452 C-2.56790588 165.38025452 -4.54790588 172.64025452 -6.58790588 180.12025452 C-24.40790588 180.12025452 -42.22790588 180.12025452 -60.58790588 180.12025452 C-59.46303513 172.24615921 -59.46303513 172.24615921 -58.16773987 168.34559631 C-57.87843094 167.46432571 -57.58912201 166.58305511 -57.29104614 165.67507935 C-56.81730812 164.26155434 -56.81730812 164.26155434 -56.33399963 162.81947327 C-56.00210129 161.81271042 -55.67020294 160.80594757 -55.32824707 159.76867676 C-54.609652 157.59055181 -53.88847289 155.41327803 -53.16499329 153.23677063 C-51.20137249 147.32823976 -49.25716156 141.4133166 -47.31056213 135.49916077 C-46.91079163 134.28621338 -46.51102112 133.07326599 -46.09913635 131.82356262 C-42.63552139 121.30135499 -39.25665388 110.75340564 -35.90119934 100.19630432 C-29.02888707 78.58202616 -22.0091927 57.01703098 -14.94008636 35.46646881 C-14.15171188 33.06173812 -13.36449588 30.65663101 -12.57759094 28.25141907 C-11.33877638 24.46560473 -10.09680332 20.68084149 -8.85227394 16.89690208 C-8.38923283 15.48759862 -7.92719538 14.07796497 -7.46619225 12.66799355 C-6.83326851 10.73309386 -6.1961781 8.79955859 -5.55885315 6.86610413 C-5.02168419 5.23033669 -5.02168419 5.23033669 -4.47366333 3.56152344 C-3.23600606 0.15037036 -3.23600606 0.15037036 0 0 Z M29.41209412 34.12025452 C29.18135193 35.14457581 28.95060974 36.16889709 28.71287537 37.22425842 C27.61978531 42.06622986 26.51795966 46.90618583 25.41209412 51.74525452 C25.21189667 52.62129333 25.01169922 53.49733215 24.80543518 54.3999176 C21.74789008 67.73544424 18.4449102 80.97854505 14.80076599 94.16566467 C14.48559021 95.31083557 14.17041443 96.45600647 13.84568787 97.63587952 C13.56781433 98.62877991 13.2899408 99.6216803 13.00364685 100.64466858 C12.29588838 103.18234963 12.29588838 103.18234963 12.41209412 106.12025452 C24.29209412 106.12025452 36.17209412 106.12025452 48.41209412 106.12025452 C46.7474705 97.77719731 46.7474705 97.77719731 44.83982849 89.50892639 C44.54612366 88.31489197 44.25241882 87.12085754 43.94981384 85.89064026 C43.63830383 84.63610046 43.32679382 83.38156067 43.00584412 82.08900452 C42.84468613 81.4387178 42.68352814 80.78843109 42.51748657 80.11843872 C41.66830036 76.69198236 40.81651186 73.26618617 39.96238708 69.84095764 C39.08176085 66.30738467 38.20992481 62.77170258 37.34000397 59.23548126 C36.66700061 56.50630849 35.98772928 53.77872453 35.30670166 51.05154419 C34.82478843 49.114902 34.3495353 47.17660645 33.87437439 45.23829651 C33.58066956 44.06947937 33.28696472 42.90066223 32.98435974 41.69642639 C32.72835999 40.66513611 32.47236023 39.63384583 32.20860291 38.57130432 C31.57013166 35.97565681 31.57013166 35.97565681 29.41209412 34.12025452 Z " fill="#AF3100" transform="translate(929.5879058837891,800.8797454833984)"/>
<path d="M0 0 C7.54270198 -0.33053805 15.08353156 -0.55761739 22.63183594 -0.71411133 C25.19699873 -0.77935752 27.76168034 -0.86798237 30.32519531 -0.98071289 C50.92410939 -1.86363764 50.92410939 -1.86363764 55.85940552 1.12658691 C59.17623658 4.4599678 60.49496878 8.64836862 62 13 C63.13076857 15.02321875 64.30589314 17.022388 65.52734375 18.9921875 C66.66536979 20.95236661 67.802076 22.91331253 68.9375 24.875 C73.02942795 31.9157578 77.1276568 38.9514627 81.3125 45.9375 C81.67915771 46.55157715 82.04581543 47.1656543 82.42358398 47.79833984 C84.00282737 50.55486005 84.00282737 50.55486005 86 53 C86.38631592 52.30253662 86.77263184 51.60507324 87.1706543 50.88647461 C94.18028224 38.2364403 101.20288326 25.5942073 108.3125 13 C108.85672607 12.03441162 109.40095215 11.06882324 109.96166992 10.07397461 C110.46545166 9.18331299 110.9692334 8.29265137 111.48828125 7.375 C111.92696533 6.59898437 112.36564941 5.82296875 112.81762695 5.0234375 C113.81768897 3.31199541 114.9004675 1.64929874 116 0 C118.3664856 -0.36076355 118.3664856 -0.36076355 121.36767578 -0.34057617 C122.48868683 -0.34034958 123.60969788 -0.34012299 124.76467896 -0.33988953 C125.97928802 -0.32440567 127.19389709 -0.30892181 128.4453125 -0.29296875 C130.30553543 -0.28660149 130.30553543 -0.28660149 132.20333862 -0.28010559 C135.50135463 -0.26613216 138.7989335 -0.23917361 142.09680176 -0.20599365 C145.46161542 -0.17531238 148.82649304 -0.16160446 152.19140625 -0.14648438 C158.79444271 -0.1133473 165.39718558 -0.06309697 172 0 C170.72952071 3.23974931 169.39734247 6.2125505 167.6015625 9.1953125 C167.12879883 9.98309082 166.65603516 10.77086914 166.16894531 11.58251953 C165.65944336 12.42153809 165.14994141 13.26055664 164.625 14.125 C163.8220752 15.4550708 163.8220752 15.4550708 163.00292969 16.81201172 C159.00798323 23.40355636 154.91696992 29.93056352 150.78149414 36.43457031 C145.09371738 45.39247608 139.55620497 54.44213647 134.00390625 63.484375 C130.18320932 69.70657335 126.34524305 75.91794704 122.5 82.125 C121.9419165 83.02589355 121.38383301 83.92678711 120.80883789 84.85498047 C119.5395175 86.9035017 118.26993815 88.9518617 117 91 C119.88080103 96.23720093 123.0754325 101.08718264 126.5625 105.9375 C127.6401506 107.44993142 128.71695527 108.96296591 129.79296875 110.4765625 C130.60193604 111.61399902 130.60193604 111.61399902 131.42724609 112.77441406 C133.7759892 116.09809337 136.07785645 119.45303937 138.375 122.8125 C143.13237676 129.76238427 147.95683309 136.66373551 152.79492188 143.55761719 C156.97445588 149.51885574 161.10595084 155.51115642 165.21411133 161.52172852 C168.58902972 166.44345804 172.07527177 171.26955382 175.63671875 176.05859375 C177 178 177 178 177 179 C169.70099462 179.56106641 162.40673401 179.98471799 155.09039974 180.24349213 C151.68972447 180.36788719 148.30394098 180.5354216 144.91186523 180.81054688 C123.09383725 182.45021448 123.09383725 182.45021448 116.36514282 176.77938843 C111.61861274 171.06223676 108.40044267 164.64789994 105.34762573 157.90838623 C103.64193143 154.22723224 101.61510158 150.97474494 99.39453125 147.58203125 C97.57744933 144.65589616 95.76115206 141.72936267 93.95117188 138.79882812 C91.17324007 134.33311505 88.44607773 129.99334565 85 126 C84.65445068 126.57105469 84.30890137 127.14210938 83.95288086 127.73046875 C76.99592746 139.21771715 69.9915044 150.6732721 62.875 162.0625 C62.24843506 163.06603516 61.62187012 164.06957031 60.97631836 165.10351562 C57.62314008 170.45839416 57.62314008 170.45839416 56 173 C55.30269775 174.62240601 55.30269775 174.62240601 54.59130859 176.27758789 C51.51954909 179.50475863 50.70975898 179.4509736 46.40527344 179.68115234 C44.05642638 179.68020266 41.70744606 179.64631714 39.359375 179.5859375 C38.12205627 179.57744781 36.88473755 179.56895813 35.60992432 179.56021118 C32.32778093 179.53232003 29.04741491 179.47846466 25.76586914 179.4119873 C22.4143919 179.35049417 19.06283826 179.32369382 15.7109375 179.29296875 C9.13993008 179.22679468 2.57011038 179.12637399 -4 179 C-3.0593596 177.25535651 -2.1162488 175.51204483 -1.17211914 173.76928711 C-0.64719376 172.79833603 -0.12226837 171.82738495 0.41856384 170.82701111 C2.60009865 166.92725005 5.03969857 163.24698752 7.5625 159.5625 C8.61823031 157.99940173 9.6728787 156.4355723 10.7265625 154.87109375 C11.26571289 154.07171387 11.80486328 153.27233398 12.36035156 152.44873047 C15.09331691 148.36718752 17.76621596 144.24707804 20.4375 140.125 C20.97560303 139.29516602 21.51370605 138.46533203 22.06811523 137.61035156 C23.16239817 135.92222493 24.25639146 134.23391051 25.35009766 132.54541016 C27.55671859 129.14111453 29.76882002 125.74039777 31.98120117 122.33984375 C33.60330111 119.84586208 35.22364732 117.35074818 36.84375 114.85546875 C38.94179579 111.62486676 41.04658561 108.39880655 43.15625 105.17578125 C44.14586306 103.65887356 45.13544773 102.14194735 46.125 100.625 C46.57439941 99.94155518 47.02379883 99.25811035 47.48681641 98.55395508 C48.31069026 97.28839241 49.11767243 96.01160683 49.90405273 94.72241211 C51 93 51 93 53.23046875 90.23046875 C54.19809065 86.16842147 53.43477581 85.35530547 51.35546875 81.82421875 C49.98977395 79.76279583 48.59848214 77.71819351 47.1875 75.6875 C46.44358352 74.57942099 45.70224782 73.4696054 44.96337891 72.3581543 C43.42383911 70.04667186 41.87340115 67.74310027 40.31494141 65.44433594 C36.72924916 60.13530943 33.31090729 54.71910711 29.875 49.3125 C28.55000981 47.24184785 27.22449206 45.17153318 25.8984375 43.1015625 C23.31313793 39.05921131 20.73523788 35.01228669 18.1640625 30.9609375 C17.55079102 29.99478516 16.93751953 29.02863281 16.30566406 28.03320312 C15.12200511 26.16777199 13.93903746 24.30190199 12.75683594 22.43554688 C9.0416245 16.58588024 5.23166929 10.82265717 1.2578125 5.14453125 C0 3 0 3 0 0 Z " fill="#002DFF" transform="translate(4,802)"/>
<path d="M0 0 C98.14172535 0 98.14172535 0 116.6875 17.25 C128.88574563 30.23887266 130.90281374 46.28178666 130.3828125 63.38671875 C129.47790511 80.21856534 123.32485055 94.35188833 111 106 C92.53349608 121.01020639 72.38801121 120 49 120 C49 139.47 49 158.94 49 179 C32.83 179 16.66 179 0 179 C0 119.93 0 60.86 0 0 Z M49 40 C49 53.2 49 66.4 49 80 C62.92722922 80.21778774 62.92722922 80.21778774 74.8125 75.375 C79.16188469 70.65281091 81.21372971 65.34403175 81.5 58.9375 C81.21601347 52.64083313 79.05750417 48.05750417 74.625 43.625 C66.01474277 38.29484076 59.91351935 40 49 40 Z " fill="#002DFF" transform="translate(218,802)"/>
<path d="M0 0 C35.31 0 70.62 0 107 0 C107 13.2 107 26.4 107 40 C87.86 40 68.72 40 49 40 C49 48.91 49 57.82 49 67 C66.82 67 84.64 67 103 67 C103 80.2 103 93.4 103 107 C85.18 107 67.36 107 49 107 C49 117.56 49 128.12 49 139 C68.14 139 87.28 139 107 139 C107 152.2 107 165.4 107 179 C71.69 179 36.38 179 0 179 C0 119.93 0 60.86 0 0 Z " fill="#002DFF" transform="translate(395,802)"/>
<path d="M0 0 C0.69676849 0.00337372 1.39353699 0.00674744 2.11141968 0.01022339 C20.73264402 0.14023722 38.43366335 3.40480903 55.375 11.4375 C56.79072373 15.6846712 55.08157668 18.58347032 53.515625 22.5703125 C53.21058044 23.3627536 52.90553589 24.1551947 52.59124756 24.97164917 C51.94346563 26.64617556 51.29084803 28.31883808 50.63378906 29.98974609 C49.62838655 32.55386315 48.64539367 35.12580818 47.6640625 37.69921875 C47.03258767 39.32343737 46.3998185 40.94715348 45.765625 42.5703125 C45.47173889 43.34319611 45.17785278 44.11607971 44.87506104 44.91238403 C44.12681833 46.79027905 43.26013099 48.62011177 42.375 50.4375 C38.11249874 51.85833375 35.45177175 49.94296396 31.5625 48.1875 C18.00491976 42.37217448 2.87854049 38.29702847 -11.625 43.125 C-20.63929305 46.94684939 -25.18062039 52.83999867 -29.625 61.4375 C-37.55246959 82.18741287 -37.34843723 106.61965105 -28.375 127 C-24.30590459 134.33670233 -18.17028945 139.21389171 -10.19140625 141.77734375 C10.94457063 145.68969873 28.44880893 139.47027332 48.375 132.4375 C48.375 146.2975 48.375 160.1575 48.375 174.4375 C21.76657197 186.26346802 -10.64390742 189.13019014 -38.4375 179.1875 C-58.05820994 170.91458872 -71.08772934 158.0667494 -79.375 138.3125 C-83.5568923 126.67101602 -86.21487717 113.80953876 -86.625 101.4375 C-86.6765625 100.21546875 -86.728125 98.9934375 -86.78125 97.734375 C-87.55332676 71.04668049 -81.46163275 45.14685424 -63.875 24.5625 C-46.71605132 6.76999014 -24.28155774 -0.22965844 0 0 Z " fill="#AF3100" transform="translate(1355.625,799.5625)"/>
<path d="M0 0 C44.88 0 89.76 0 136 0 C136 13.53 136 27.06 136 41 C121.81 41 107.62 41 93 41 C93 86.54 93 132.08 93 179 C76.5 179 60 179 43 179 C43 133.46 43 87.92 43 41 C28.81 41 14.62 41 0 41 C0 27.47 0 13.94 0 0 Z " fill="#002DFF" transform="translate(726,802)"/>
<path d="M0 0 C18.15 0 36.3 0 55 0 C55 17.82 55 35.64 55 54 C36.85 54 18.7 54 0 54 C0 36.18 0 18.36 0 0 Z " fill="#AF3100" transform="translate(572,665)"/>
<path d="M0 0 C18.15 0 36.3 0 55 0 C55 17.82 55 35.64 55 54 C36.85 54 18.7 54 0 54 C0 36.18 0 18.36 0 0 Z " fill="#AF3100" transform="translate(509,665)"/>
<path d="M0 0 C18.15 0 36.3 0 55 0 C55 17.82 55 35.64 55 54 C36.85 54 18.7 54 0 54 C0 36.18 0 18.36 0 0 Z " fill="#AF3100" transform="translate(572,603)"/>
<path d="M0 0 C18.15 0 36.3 0 55 0 C55 17.82 55 35.64 55 54 C36.85 54 18.7 54 0 54 C0 36.18 0 18.36 0 0 Z " fill="#AF3100" transform="translate(509,603)"/>
<path d="M0 0 C2.31 0 4.62 0 7 0 C9.65995331 7.58700527 11.7041771 15.27412759 13.6875 23.0625 C14.00783203 24.30966797 14.32816406 25.55683594 14.65820312 26.84179688 C15.44166985 29.89380903 16.22219312 32.94654147 17 36 C17.29769287 34.94498291 17.59538574 33.88996582 17.90209961 32.80297852 C19.00391779 28.90147917 20.1100571 25.00121618 21.2175293 21.10131836 C21.69690669 19.4108994 22.17510002 17.7201442 22.65209961 16.02905273 C23.33659319 13.6031165 24.02528893 11.178408 24.71484375 8.75390625 C24.92842026 7.99348526 25.14199677 7.23306427 25.36204529 6.44960022 C26.88612829 1.11387171 26.88612829 1.11387171 28 0 C30.33297433 -0.04092937 32.66705225 -0.04241723 35 0 C37.51004857 7.28300247 39.63555404 14.63865377 41.6875 22.0625 C42.00783203 23.21427734 42.32816406 24.36605469 42.65820312 25.55273438 C43.44085031 28.36792798 44.22139991 31.18368493 45 34 C46.96777524 30.49322545 47.92628468 26.92575507 48.9453125 23.046875 C49.12005096 22.38665344 49.29478943 21.72643188 49.474823 21.04620361 C50.02900125 18.94852918 50.57708022 16.84931687 51.125 14.75 C51.50089991 13.32281068 51.87719766 11.89572608 52.25390625 10.46875 C53.17388111 6.98036755 54.08839475 3.49058022 55 0 C57.64 0 60.28 0 63 0 C60.99462157 7.18698293 58.98364489 14.37237935 56.96679688 21.55615234 C56.34242332 23.78024664 55.71868026 26.00451807 55.09570312 28.22900391 C54.27562608 31.15366643 53.45104343 34.07701787 52.625 37 C52.37476074 37.89485107 52.12452148 38.78970215 51.86669922 39.71166992 C50.11460592 45.88539408 50.11460592 45.88539408 49 47 C46.32941149 47.14115161 43.67567762 47.04247107 41 47 C40.7326001 46.0713916 40.4652002 45.1427832 40.18969727 44.18603516 C39.19832843 40.74520137 38.2044111 37.30510815 37.2097168 33.86523438 C36.77933161 32.37552691 36.34964046 30.88561875 35.9206543 29.39550781 C35.30439112 27.25532912 34.68564639 25.11588146 34.06640625 22.9765625 C33.87470352 22.30879791 33.68300079 21.64103333 33.48548889 20.95303345 C32.45549927 17.39643928 32.45549927 17.39643928 31 14 C27.7 24.89 24.4 35.78 21 47 C18.36 47 15.72 47 13 47 C9.40119712 36.05858466 6.12098426 25.06015898 3.125 13.9375 C2.8148999 12.78975098 2.5047998 11.64200195 2.18530273 10.45947266 C0 2.26227442 0 2.26227442 0 0 Z " fill="#000000" transform="translate(933,1036)"/>
<path d="M0 0 C1.6328125 1.1015625 1.6328125 1.1015625 3.8828125 3.1015625 C4.2128125 1.7815625 4.5428125 0.4615625 4.8828125 -0.8984375 C7.1928125 -0.8984375 9.5028125 -0.8984375 11.8828125 -0.8984375 C11.95713904 5.11553259 12.01149838 11.12923346 12.04760742 17.14355469 C12.06266538 19.18819844 12.08311607 21.23281005 12.10913086 23.27734375 C12.14564561 26.22143502 12.16256901 29.16509807 12.17578125 32.109375 C12.19126511 33.0189798 12.20674896 33.92858459 12.22270203 34.86575317 C12.22425527 40.76387485 11.52488614 45.20491405 7.3828125 49.74609375 C1.11350888 54.62766089 -4.36542047 54.81786502 -12.1171875 54.1015625 C-16.12871856 52.87263314 -19.09461872 51.12413128 -22.0546875 48.1640625 C-23.26267392 45.81914769 -23.7554289 43.70622443 -24.1171875 41.1015625 C-20.9296875 40.7890625 -20.9296875 40.7890625 -17.1171875 41.1015625 C-14.3046875 43.5390625 -14.3046875 43.5390625 -12.1171875 46.1015625 C-8.34280136 47.98875557 -3.693382 47.59930813 0.2578125 46.3515625 C2.40964112 44.69630972 3.05746436 43.71516493 3.8828125 41.1015625 C4.03748374 38.410283 3.97283321 35.80218367 3.8828125 33.1015625 C2.9134375 33.7615625 1.9440625 34.4215625 0.9453125 35.1015625 C-3.43330582 37.57336317 -7.18698774 37.91619103 -12.1171875 37.1015625 C-16.94686478 35.71422253 -20.17445842 33.54871801 -23.0546875 29.4140625 C-26.12525863 23.82271844 -26.71051073 18.21319204 -25.5546875 11.9765625 C-24.06247436 6.9010076 -20.72795883 2.77513387 -16.2890625 -0.0703125 C-11.41079272 -1.9303722 -4.8231246 -2.04671339 0 0 Z M-17.1171875 10.1015625 C-19.13261548 14.61269067 -19.59323917 18.67655533 -18.1171875 23.4140625 C-16.28145212 27.40479159 -14.22638774 29.35134758 -10.1171875 31.1015625 C-5.16117936 31.52111874 -2.03816116 30.83066665 1.8828125 27.7265625 C5.34814207 23.17831745 5.57196231 18.63364178 4.8828125 13.1015625 C3.27566476 9.94466516 1.90843016 7.90740494 -0.8671875 5.7265625 C-7.39134802 3.91429569 -12.95816608 4.27622306 -17.1171875 10.1015625 Z " fill="#000000" transform="translate(898.1171875,1046.8984375)"/>
<path d="M0 0 C1.6328125 1.1015625 1.6328125 1.1015625 3.8828125 3.1015625 C4.2128125 1.7815625 4.5428125 0.4615625 4.8828125 -0.8984375 C7.1928125 -0.8984375 9.5028125 -0.8984375 11.8828125 -0.8984375 C11.95713904 5.11553259 12.01149838 11.12923346 12.04760742 17.14355469 C12.06266538 19.18819844 12.08311607 21.23281005 12.10913086 23.27734375 C12.14564561 26.22143502 12.16256901 29.16509807 12.17578125 32.109375 C12.19126511 33.0189798 12.20674896 33.92858459 12.22270203 34.86575317 C12.22425527 40.76387485 11.52488614 45.20491405 7.3828125 49.74609375 C1.11350888 54.62766089 -4.36542047 54.81786502 -12.1171875 54.1015625 C-16.12871856 52.87263314 -19.09461872 51.12413128 -22.0546875 48.1640625 C-23.26267392 45.81914769 -23.7554289 43.70622443 -24.1171875 41.1015625 C-20.9296875 40.7890625 -20.9296875 40.7890625 -17.1171875 41.1015625 C-14.3046875 43.5390625 -14.3046875 43.5390625 -12.1171875 46.1015625 C-8.34280136 47.98875557 -3.693382 47.59930813 0.2578125 46.3515625 C2.40964112 44.69630972 3.05746436 43.71516493 3.8828125 41.1015625 C4.03748374 38.410283 3.97283321 35.80218367 3.8828125 33.1015625 C2.9134375 33.7615625 1.9440625 34.4215625 0.9453125 35.1015625 C-3.43330582 37.57336317 -7.18698774 37.91619103 -12.1171875 37.1015625 C-16.94686478 35.71422253 -20.17445842 33.54871801 -23.0546875 29.4140625 C-26.12525863 23.82271844 -26.71051073 18.21319204 -25.5546875 11.9765625 C-24.06247436 6.9010076 -20.72795883 2.77513387 -16.2890625 -0.0703125 C-11.41079272 -1.9303722 -4.8231246 -2.04671339 0 0 Z M-17.1171875 10.1015625 C-19.13261548 14.61269067 -19.59323917 18.67655533 -18.1171875 23.4140625 C-16.28145212 27.40479159 -14.22638774 29.35134758 -10.1171875 31.1015625 C-5.16117936 31.52111874 -2.03816116 30.83066665 1.8828125 27.7265625 C5.34814207 23.17831745 5.57196231 18.63364178 4.8828125 13.1015625 C3.27566476 9.94466516 1.90843016 7.90740494 -0.8671875 5.7265625 C-7.39134802 3.91429569 -12.95816608 4.27622306 -17.1171875 10.1015625 Z " fill="#000000" transform="translate(331.1171875,1046.8984375)"/>
<path d="M0 0 C2.31 0 4.62 0 7 0 C7.33 0.66 7.66 1.32 8 2 C8.54785156 1.67644531 9.09570312 1.35289063 9.66015625 1.01953125 C13.91472921 -0.8342977 18.44776301 -0.4470947 23 0 C25.9375 1.3125 25.9375 1.3125 28 3 C28.763125 3.556875 29.52625 4.11375 30.3125 4.6875 C30.869375 5.120625 31.42625 5.55375 32 6 C32.2475 5.38125 32.495 4.7625 32.75 4.125 C34.27910436 1.52552259 35.20894994 1.07933282 38 0 C40.83984375 -0.30078125 40.83984375 -0.30078125 43.9375 -0.3125 C45.46697266 -0.33763672 45.46697266 -0.33763672 47.02734375 -0.36328125 C51.15230911 0.14082096 53.57061945 1.19296978 56.19018555 4.50463867 C59.97041553 10.7866754 59.45326675 17.3856637 59.25 24.5 C59.23195313 25.70398437 59.21390625 26.90796875 59.1953125 28.1484375 C59.14846554 31.09979605 59.08288005 34.04947036 59 37 C56.69 37 54.38 37 52 37 C51.98598145 35.90328979 51.98598145 35.90328979 51.97167969 34.78442383 C51.91787336 31.45977282 51.83424496 28.13651322 51.75 24.8125 C51.73582031 23.66201172 51.72164062 22.51152344 51.70703125 21.32617188 C51.67480469 20.21435547 51.64257812 19.10253906 51.609375 17.95703125 C51.58842773 16.93585205 51.56748047 15.91467285 51.54589844 14.86254883 C50.86637745 11.29931823 49.50142905 9.58312379 47 7 C44.80289505 6.22029621 44.80289505 6.22029621 42.5 6.375 C41.7471875 6.36210938 40.994375 6.34921875 40.21875 6.3359375 C36.91819372 7.32378005 35.89291245 9.1788792 34 12 C33.3674283 14.8836852 33.3674283 14.8836852 33.390625 17.95703125 C33.35839844 19.06884766 33.32617188 20.18066406 33.29296875 21.32617188 C33.27878906 22.47666016 33.26460937 23.62714844 33.25 24.8125 C33.20552734 26.56723633 33.20552734 26.56723633 33.16015625 28.35742188 C33.08960291 31.23835009 33.03683271 34.11847578 33 37 C30.69 37 28.38 37 26 37 C25.98541748 36.29915283 25.97083496 35.59830566 25.95581055 34.8762207 C25.88114513 31.68776991 25.78454525 28.50034487 25.6875 25.3125 C25.66494141 24.20970703 25.64238281 23.10691406 25.61914062 21.97070312 C25.58369141 20.90400391 25.54824219 19.83730469 25.51171875 18.73828125 C25.48553467 17.75899658 25.45935059 16.77971191 25.43237305 15.77075195 C24.93073737 12.55614818 23.89669973 10.62398598 22 8 C18.85658007 6.42829004 15.44228549 6.76824217 12 7 C11.01 7.33 10.02 7.66 9 8 C7.75437773 11.16438154 7.80388059 14.49134335 7.68359375 17.859375 C7.64169922 18.97441406 7.59980469 20.08945313 7.55664062 21.23828125 C7.49766602 22.97658203 7.49766602 22.97658203 7.4375 24.75 C7.37272461 26.51150391 7.37272461 26.51150391 7.30664062 28.30859375 C7.20065206 31.20561451 7.09858362 34.10271935 7 37 C4.69 37 2.38 37 0 37 C0 24.79 0 12.58 0 0 Z " fill="#000000" transform="translate(569,1046)"/>
<path d="M0 0 C7 0 7 0 8.62988281 1.29077148 C8.98405273 1.89477783 9.33822266 2.49878418 9.703125 3.12109375 C10.12102295 3.80179932 10.5389209 4.48250488 10.96948242 5.18383789 C11.60333862 6.29940063 11.60333862 6.29940063 12.25 7.4375 C13.18803944 8.98744098 14.1268663 10.53690563 15.06640625 12.0859375 C15.54352051 12.8912793 16.02063477 13.69662109 16.51220703 14.52636719 C18.96605638 18.60618365 21.58409574 22.57722554 24.1875 26.5625 C25.775625 29.016875 27.36375 31.47125 29 34 C29.33 22.78 29.66 11.56 30 0 C32.31 0 34.62 0 37 0 C37 15.51 37 31.02 37 47 C29 47 29 47 26.91772461 45.13916016 C26.41764893 44.28112793 25.91757324 43.4230957 25.40234375 42.5390625 C24.82806641 41.59160156 24.25378906 40.64414063 23.66210938 39.66796875 C23.09298828 38.66378906 22.52386719 37.65960937 21.9375 36.625 C20.78223298 34.67832959 19.62468835 32.73300902 18.46484375 30.7890625 C17.965896 29.91975098 17.46694824 29.05043945 16.95288086 28.15478516 C14.16112108 23.64483142 11.04170857 19.34529796 8 15 C7.67 25.56 7.34 36.12 7 47 C4.69 47 2.38 47 0 47 C0 31.49 0 15.98 0 0 Z " fill="#000000" transform="translate(163,1036)"/>
<path d="M0 0 C24.44444444 0 24.44444444 0 30 4.6875 C32.14906408 9.65721069 32.57072229 13.4305137 30.75 18.4375 C29 21 29 21 26 22 C26 22.66 26 23.32 26 24 C26.8971875 24.309375 26.8971875 24.309375 27.8125 24.625 C30.91439253 26.57476102 31.69763021 28.61383854 33 32 C33.57655769 35.95353844 33.19506815 37.63153793 31.3125 41.1875 C28.37383532 44.76155164 25.90037886 46.76640863 21.22924805 47.34057617 C20.24996338 47.32486572 19.27067871 47.30915527 18.26171875 47.29296875 C17.29967529 47.28547607 16.33763184 47.2779834 15.34643555 47.27026367 C14.13898682 47.24295166 12.93153809 47.21563965 11.6875 47.1875 C5.9021875 47.0946875 5.9021875 47.0946875 0 47 C0 31.49 0 15.98 0 0 Z M7 6 C7 10.62 7 15.24 7 20 C10.34125 20.1546875 10.34125 20.1546875 13.75 20.3125 C15.62945313 20.39951172 15.62945313 20.39951172 17.546875 20.48828125 C21.1355836 20.32131282 21.1355836 20.32131282 23.44921875 17.67578125 C25.25090914 15.06463236 25.25090914 15.06463236 25.0625 11.875 C23.70359371 8.19795944 22.50279189 7.64979563 19 6 C15.87646211 5.63987667 15.87646211 5.63987667 12.6875 5.8125 C9.8721875 5.9053125 9.8721875 5.9053125 7 6 Z M7 26 C7 31.28 7 36.56 7 42 C9.8153125 42.0928125 9.8153125 42.0928125 12.6875 42.1875 C14.27111328 42.23970703 14.27111328 42.23970703 15.88671875 42.29296875 C20.34076628 41.87383002 22.88501354 40.11498646 26 37 C26.50042146 34.08461971 26.50042146 34.08461971 26 31 C24.1329009 28.69724444 22.64352259 27.32176129 20 26 C15.66396021 25.8606671 11.33919329 25.95745889 7 26 Z " fill="#000000" transform="translate(696,1036)"/>
<path d="M0 0 C2.31 0 4.62 0 7 0 C7 6.93 7 13.86 7 21 C14.26 21 21.52 21 29 21 C29 14.07 29 7.14 29 0 C31.31 0 33.62 0 36 0 C36 15.51 36 31.02 36 47 C33.69 47 31.38 47 29 47 C29 40.07 29 33.14 29 26 C21.74 26 14.48 26 7 26 C7 32.93 7 39.86 7 47 C4.69 47 2.38 47 0 47 C0 31.49 0 15.98 0 0 Z " fill="#000000" transform="translate(480,1036)"/>
<path d="M0 0 C1.6328125 1.1015625 1.6328125 1.1015625 3.8828125 3.1015625 C4.2128125 1.7815625 4.5428125 0.4615625 4.8828125 -0.8984375 C7.1928125 -0.8984375 9.5028125 -0.8984375 11.8828125 -0.8984375 C11.8828125 11.3115625 11.8828125 23.5215625 11.8828125 36.1015625 C9.5728125 36.1015625 7.2628125 36.1015625 4.8828125 36.1015625 C4.5528125 35.1115625 4.2228125 34.1215625 3.8828125 33.1015625 C2.9134375 33.7615625 1.9440625 34.4215625 0.9453125 35.1015625 C-3.43330582 37.57336317 -7.18698774 37.91619103 -12.1171875 37.1015625 C-16.94686478 35.71422253 -20.17445842 33.54871801 -23.0546875 29.4140625 C-26.12525863 23.82271844 -26.71051073 18.21319204 -25.5546875 11.9765625 C-24.06247436 6.9010076 -20.72795883 2.77513387 -16.2890625 -0.0703125 C-11.41079272 -1.9303722 -4.8231246 -2.04671339 0 0 Z M-17.1171875 10.1015625 C-19.13261548 14.61269067 -19.59323917 18.67655533 -18.1171875 23.4140625 C-16.28145212 27.40479159 -14.22638774 29.35134758 -10.1171875 31.1015625 C-5.16117936 31.52111874 -2.03816116 30.83066665 1.8828125 27.7265625 C5.34814207 23.17831745 5.57196231 18.63364178 4.8828125 13.1015625 C3.27566476 9.94466516 1.90843016 7.90740494 -0.8671875 5.7265625 C-7.39134802 3.91429569 -12.95816608 4.27622306 -17.1171875 10.1015625 Z " fill="#000000" transform="translate(1159.1171875,1046.8984375)"/>
<path d="M0 0 C1.6328125 1.1015625 1.6328125 1.1015625 3.8828125 3.1015625 C4.2128125 1.7815625 4.5428125 0.4615625 4.8828125 -0.8984375 C7.1928125 -0.8984375 9.5028125 -0.8984375 11.8828125 -0.8984375 C11.8828125 11.3115625 11.8828125 23.5215625 11.8828125 36.1015625 C9.5728125 36.1015625 7.2628125 36.1015625 4.8828125 36.1015625 C4.5528125 35.1115625 4.2228125 34.1215625 3.8828125 33.1015625 C2.9134375 33.7615625 1.9440625 34.4215625 0.9453125 35.1015625 C-3.43330582 37.57336317 -7.18698774 37.91619103 -12.1171875 37.1015625 C-16.94686478 35.71422253 -20.17445842 33.54871801 -23.0546875 29.4140625 C-26.12525863 23.82271844 -26.71051073 18.21319204 -25.5546875 11.9765625 C-24.06247436 6.9010076 -20.72795883 2.77513387 -16.2890625 -0.0703125 C-11.41079272 -1.9303722 -4.8231246 -2.04671339 0 0 Z M-17.1171875 10.1015625 C-19.13261548 14.61269067 -19.59323917 18.67655533 -18.1171875 23.4140625 C-16.28145212 27.40479159 -14.22638774 29.35134758 -10.1171875 31.1015625 C-5.16117936 31.52111874 -2.03816116 30.83066665 1.8828125 27.7265625 C5.34814207 23.17831745 5.57196231 18.63364178 4.8828125 13.1015625 C3.27566476 9.94466516 1.90843016 7.90740494 -0.8671875 5.7265625 C-7.39134802 3.91429569 -12.95816608 4.27622306 -17.1171875 10.1015625 Z " fill="#000000" transform="translate(376.1171875,1046.8984375)"/>
<path d="M0 0 C1.6328125 1.1015625 1.6328125 1.1015625 3.8828125 3.1015625 C4.2128125 1.7815625 4.5428125 0.4615625 4.8828125 -0.8984375 C7.1928125 -0.8984375 9.5028125 -0.8984375 11.8828125 -0.8984375 C11.8828125 11.3115625 11.8828125 23.5215625 11.8828125 36.1015625 C9.5728125 36.1015625 7.2628125 36.1015625 4.8828125 36.1015625 C4.5528125 35.1115625 4.2228125 34.1215625 3.8828125 33.1015625 C2.9134375 33.7615625 1.9440625 34.4215625 0.9453125 35.1015625 C-3.43330582 37.57336317 -7.18698774 37.91619103 -12.1171875 37.1015625 C-16.94686478 35.71422253 -20.17445842 33.54871801 -23.0546875 29.4140625 C-26.12525863 23.82271844 -26.71051073 18.21319204 -25.5546875 11.9765625 C-24.06247436 6.9010076 -20.72795883 2.77513387 -16.2890625 -0.0703125 C-11.41079272 -1.9303722 -4.8231246 -2.04671339 0 0 Z M-17.1171875 10.1015625 C-19.13261548 14.61269067 -19.59323917 18.67655533 -18.1171875 23.4140625 C-16.28145212 27.40479159 -14.22638774 29.35134758 -10.1171875 31.1015625 C-5.16117936 31.52111874 -2.03816116 30.83066665 1.8828125 27.7265625 C5.34814207 23.17831745 5.57196231 18.63364178 4.8828125 13.1015625 C3.27566476 9.94466516 1.90843016 7.90740494 -0.8671875 5.7265625 C-7.39134802 3.91429569 -12.95816608 4.27622306 -17.1171875 10.1015625 Z " fill="#000000" transform="translate(232.1171875,1046.8984375)"/>
<path d="M0 0 C3.95085982 2.32661745 6.92619698 4.66932345 8.546875 9.0546875 C9.041875 14.4996875 9.041875 14.4996875 9.546875 20.0546875 C-0.023125 20.3846875 -9.593125 20.7146875 -19.453125 21.0546875 C-18.34065572 27.78597435 -18.34065572 27.78597435 -15.328125 29.4921875 C-11.61532818 30.21860427 -8.20005959 30.82678311 -4.453125 30.0546875 C-1.49261626 27.76269347 -1.49261626 27.76269347 0.546875 25.0546875 C1.546875 24.0546875 1.546875 24.0546875 5.109375 23.9921875 C6.24375 24.0128125 7.378125 24.0334375 8.546875 24.0546875 C7.29472399 29.89805888 4.32788396 32.78571256 -0.453125 36.0546875 C-6.13704712 37.94932821 -12.22059731 37.94769375 -17.765625 35.5546875 C-22.13058593 33.03644081 -24.55492616 29.67745622 -26.453125 25.0546875 C-27.97992501 19.29905325 -27.90281268 13.53307994 -25.453125 8.0546875 C-19.68521694 -0.77090676 -10.13040876 -3.90375624 0 0 Z M-18.453125 9.0546875 C-18.783125 11.0346875 -19.113125 13.0146875 -19.453125 15.0546875 C-12.193125 15.0546875 -4.933125 15.0546875 2.546875 15.0546875 C0.57908319 8.56310027 0.57908319 8.56310027 -4.453125 5.0546875 C-10.14623044 4.04212065 -14.55439486 4.42494546 -18.453125 9.0546875 Z " fill="#000000" transform="translate(1240.453125,1046.9453125)"/>
<path d="M0 0 C3.95085982 2.32661745 6.92619698 4.66932345 8.546875 9.0546875 C9.041875 14.4996875 9.041875 14.4996875 9.546875 20.0546875 C-0.023125 20.3846875 -9.593125 20.7146875 -19.453125 21.0546875 C-18.34065572 27.78597435 -18.34065572 27.78597435 -15.328125 29.4921875 C-11.61532818 30.21860427 -8.20005959 30.82678311 -4.453125 30.0546875 C-1.49261626 27.76269347 -1.49261626 27.76269347 0.546875 25.0546875 C1.546875 24.0546875 1.546875 24.0546875 5.109375 23.9921875 C6.24375 24.0128125 7.378125 24.0334375 8.546875 24.0546875 C7.29472399 29.89805888 4.32788396 32.78571256 -0.453125 36.0546875 C-6.13704712 37.94932821 -12.22059731 37.94769375 -17.765625 35.5546875 C-22.13058593 33.03644081 -24.55492616 29.67745622 -26.453125 25.0546875 C-27.97992501 19.29905325 -27.90281268 13.53307994 -25.453125 8.0546875 C-19.68521694 -0.77090676 -10.13040876 -3.90375624 0 0 Z M-18.453125 9.0546875 C-18.783125 11.0346875 -19.113125 13.0146875 -19.453125 15.0546875 C-12.193125 15.0546875 -4.933125 15.0546875 2.546875 15.0546875 C0.57908319 8.56310027 0.57908319 8.56310027 -4.453125 5.0546875 C-10.14623044 4.04212065 -14.55439486 4.42494546 -18.453125 9.0546875 Z " fill="#000000" transform="translate(661.453125,1046.9453125)"/>
<path d="M0 0 C3.95085982 2.32661745 6.92619698 4.66932345 8.546875 9.0546875 C9.041875 14.4996875 9.041875 14.4996875 9.546875 20.0546875 C-0.023125 20.3846875 -9.593125 20.7146875 -19.453125 21.0546875 C-18.34065572 27.78597435 -18.34065572 27.78597435 -15.328125 29.4921875 C-11.61532818 30.21860427 -8.20005959 30.82678311 -4.453125 30.0546875 C-1.49261626 27.76269347 -1.49261626 27.76269347 0.546875 25.0546875 C1.546875 24.0546875 1.546875 24.0546875 5.109375 23.9921875 C6.24375 24.0128125 7.378125 24.0334375 8.546875 24.0546875 C7.29472399 29.89805888 4.32788396 32.78571256 -0.453125 36.0546875 C-6.13704712 37.94932821 -12.22059731 37.94769375 -17.765625 35.5546875 C-22.13058593 33.03644081 -24.55492616 29.67745622 -26.453125 25.0546875 C-27.97992501 19.29905325 -27.90281268 13.53307994 -25.453125 8.0546875 C-19.68521694 -0.77090676 -10.13040876 -3.90375624 0 0 Z M-18.453125 9.0546875 C-18.783125 11.0346875 -19.113125 13.0146875 -19.453125 15.0546875 C-12.193125 15.0546875 -4.933125 15.0546875 2.546875 15.0546875 C0.57908319 8.56310027 0.57908319 8.56310027 -4.453125 5.0546875 C-10.14623044 4.04212065 -14.55439486 4.42494546 -18.453125 9.0546875 Z " fill="#000000" transform="translate(445.453125,1046.9453125)"/>
<path d="M0 0 C2.31 0 4.62 0 7 0 C7 4.95 7 9.9 7 15 C8.65 14.01 10.3 13.02 12 12 C17.52460923 11.17465461 22.46206568 11.2984861 27.5625 13.625 C31.06202533 17.03479391 32.81343544 20.26916232 33.34057617 25.15966797 C33.3170105 26.80926514 33.3170105 26.80926514 33.29296875 28.4921875 C33.2784668 30.29042969 33.2784668 30.29042969 33.26367188 32.125 C33.23853516 33.3625 33.21339844 34.6 33.1875 35.875 C33.16719727 37.76605469 33.16719727 37.76605469 33.14648438 39.6953125 C33.11123435 42.79731454 33.06195504 45.89843534 33 49 C30.69 49 28.38 49 26 49 C25.97494385 48.26362305 25.9498877 47.52724609 25.92407227 46.76855469 C25.80795727 43.42886622 25.68530082 40.08944903 25.5625 36.75 C25.52318359 35.59113281 25.48386719 34.43226562 25.44335938 33.23828125 C25.40146484 32.12324219 25.35957031 31.00820312 25.31640625 29.859375 C25.27974854 28.83295898 25.24309082 27.80654297 25.20532227 26.74902344 C24.95741488 23.29311995 24.95741488 23.29311995 24 20 C21.18772378 19.06257459 19.41253156 18.86529156 16.5 18.875 C15.7265625 18.87242188 14.953125 18.86984375 14.15625 18.8671875 C11.81552983 18.91854187 11.81552983 18.91854187 9 20 C7.75437773 23.16438154 7.80388059 26.49134335 7.68359375 29.859375 C7.64169922 30.97441406 7.59980469 32.08945313 7.55664062 33.23828125 C7.49766602 34.97658203 7.49766602 34.97658203 7.4375 36.75 C7.39431641 37.92433594 7.35113281 39.09867188 7.30664062 40.30859375 C7.20065206 43.20561451 7.09858362 46.10271935 7 49 C4.69 49 2.38 49 0 49 C0 32.83 0 16.66 0 0 Z " fill="#000000" transform="translate(1042,1034)"/>
<path d="M0 0 C4.53812098 3.32057633 8.18198805 7.35295219 9.5625 12.875 C10.33616511 19.74276564 9.62597294 25.17558341 5.5625 30.875 C1.06881378 35.2534635 -3.04283947 36.96526787 -9.25 37.25 C-14.40594882 37.11189423 -18.3522542 36.09780502 -22.4375 32.875 C-26.33259737 28.58264145 -28.22542269 23.94586456 -28.57421875 18.17578125 C-28.2038022 11.94219993 -25.93879312 6.24768475 -21.4375 1.875 C-15.27478711 -2.59296684 -7.01122533 -2.29458284 0 0 Z M-19.4375 9.875 C-21.83111223 14.55815437 -21.93044615 18.90180853 -20.4375 23.875 C-18.48363484 27.23320574 -17.07117321 29.31239063 -13.31640625 30.60546875 C-9.14375654 31.31615614 -6.93319725 31.11366905 -3.0625 29.25 C0.99142115 25.58216658 2.41230272 23.45207144 2.9375 17.9375 C2.76588038 13.98278697 1.8026561 11.19661076 -0.4375 7.875 C-3.82138019 4.97453126 -6.97437246 4.27516294 -11.44140625 4.4609375 C-15.08877097 5.2175337 -16.98697194 7.19108831 -19.4375 9.875 Z " fill="#000000" transform="translate(551.4375,1047.125)"/>
<path d="M0 0 C2.31 0 4.62 0 7 0 C7.01981934 0.70084717 7.03963867 1.40169434 7.06005859 2.1237793 C7.15556166 5.31205162 7.26513871 8.49969147 7.375 11.6875 C7.4059375 12.79029297 7.436875 13.89308594 7.46875 15.02929688 C7.50742187 16.09599609 7.54609375 17.16269531 7.5859375 18.26171875 C7.6173584 19.24100342 7.6487793 20.22028809 7.68115234 21.22924805 C8.01774462 24.15419888 8.7129492 26.35890681 10 29 C13.16320147 31.3724011 16.14318026 31.32140164 20 31 C22.28497767 30.44123112 22.28497767 30.44123112 24 29 C25.77504833 25.35751123 26.28482209 22.28971153 26.4140625 18.26171875 C26.45273437 17.19501953 26.49140625 16.12832031 26.53125 15.02929688 C26.5621875 13.92650391 26.593125 12.82371094 26.625 11.6875 C26.66367187 10.56537109 26.70234375 9.44324219 26.7421875 8.28710938 C26.83622011 5.52490148 26.92187341 2.762696 27 0 C29.31 0 31.62 0 34 0 C34 12.21 34 24.42 34 37 C31.69 37 29.38 37 27 37 C26.67 36.34 26.34 35.68 26 35 C25.195625 35.495 24.39125 35.99 23.5625 36.5 C18.62498036 38.57895564 14.09997557 39.1109739 8.97265625 37.2734375 C5.03913451 35.22767355 2.77093178 33.03378906 1 29 C0.10870973 25.36426077 -0.11764194 21.99904301 -0.09765625 18.26171875 C-0.09443359 17.19501953 -0.09121094 16.12832031 -0.08789062 15.02929688 C-0.07951172 13.92650391 -0.07113281 12.82371094 -0.0625 11.6875 C-0.05798828 10.56537109 -0.05347656 9.44324219 -0.04882812 8.28710938 C-0.03707313 5.5246849 -0.02064077 2.76237002 0 0 Z " fill="#000000" transform="translate(735,1046)"/>
<path d="M0 0 C2.64 0 5.28 0 8 0 C11.63 8.91 15.26 17.82 19 27 C22.24890134 18.48951967 22.24890134 18.48951967 25.49194336 9.97680664 C25.89550049 8.92356201 26.29905762 7.87031738 26.71484375 6.78515625 C27.12855225 5.70113525 27.54226074 4.61711426 27.96850586 3.50024414 C29 1 29 1 30 0 C32.33297433 -0.04092937 34.66705225 -0.04241723 37 0 C34.89598903 6.61985384 32.44408771 13.04552684 29.8046875 19.46875 C29.41177521 20.43026978 29.01886292 21.39178955 28.61404419 22.38244629 C27.79017951 24.39649706 26.96487288 26.40995854 26.13818359 28.42285156 C24.86793711 31.5172054 23.60359974 34.61392805 22.33984375 37.7109375 C21.53680721 39.6720179 20.733434 41.63296047 19.9296875 43.59375 C19.55053192 44.52280151 19.17137634 45.45185303 18.7807312 46.40905762 C18.43011627 47.26084595 18.07950134 48.11263428 17.71826172 48.99023438 C17.25551346 50.1186676 17.25551346 50.1186676 16.78341675 51.26989746 C16 53 16 53 15 54 C12.66702567 54.04092937 10.33294775 54.04241723 8 54 C11 45 11 45 11.84631348 43.05198669 C13.91528494 37.91821409 14.27849934 34.81944172 12.20536804 29.66967773 C11.72279289 28.59568726 11.72279289 28.59568726 11.23046875 27.5 C10.91547928 26.73824463 10.60048981 25.97648926 10.2759552 25.19165039 C9.27289787 22.7822697 8.23155744 20.39185822 7.1875 18 C6.49668771 16.36440271 5.80850881 14.72769052 5.12304688 13.08984375 C3.87603332 10.11372426 2.61184779 7.1460527 1.33276367 4.18359375 C0 1 0 1 0 0 Z " fill="#000000" transform="translate(774,1046)"/>
<path d="M0 0 C8.25 0 16.5 0 25 0 C25 1.98 25 3.96 25 6 C19.06 6 13.12 6 7 6 C7 10.95 7 15.9 7 21 C12.28 21 17.56 21 23 21 C23 22.98 23 24.96 23 27 C17.72 27 12.44 27 7 27 C7 31.95 7 36.9 7 42 C12.94 42 18.88 42 25 42 C25 43.65 25 45.3 25 47 C16.75 47 8.5 47 0 47 C0 31.49 0 15.98 0 0 Z " fill="#000000" transform="translate(1102,1036)"/>
<path d="M0 0 C2.31 0 4.62 0 7 0 C7.33 0.66 7.66 1.32 8 2 C8.53882813 1.67773438 9.07765625 1.35546875 9.6328125 1.0234375 C14.18897508 -0.94638857 19.1406136 -0.52041621 24 0 C29.12084961 2.33582614 30.86128793 4.8999649 33 10 C33.34057617 13.15966797 33.34057617 13.15966797 33.29296875 16.4921875 C33.2784668 18.29042969 33.2784668 18.29042969 33.26367188 20.125 C33.23853516 21.3625 33.21339844 22.6 33.1875 23.875 C33.16719727 25.76605469 33.16719727 25.76605469 33.14648438 27.6953125 C33.11123435 30.79731454 33.06195504 33.89843534 33 37 C30.69 37 28.38 37 26 37 C25.97494385 36.26362305 25.9498877 35.52724609 25.92407227 34.76855469 C25.80795727 31.42886622 25.68530082 28.08944903 25.5625 24.75 C25.52318359 23.59113281 25.48386719 22.43226562 25.44335938 21.23828125 C25.40146484 20.12324219 25.35957031 19.00820312 25.31640625 17.859375 C25.27974854 16.83295898 25.24309082 15.80654297 25.20532227 14.74902344 C24.95741488 11.29311995 24.95741488 11.29311995 24 8 C21.18772378 7.06257459 19.41253156 6.86529156 16.5 6.875 C15.7265625 6.87242188 14.953125 6.86984375 14.15625 6.8671875 C11.81552983 6.91854187 11.81552983 6.91854187 9 8 C7.75437773 11.16438154 7.80388059 14.49134335 7.68359375 17.859375 C7.64169922 18.97441406 7.59980469 20.08945313 7.55664062 21.23828125 C7.49766602 22.97658203 7.49766602 22.97658203 7.4375 24.75 C7.37272461 26.51150391 7.37272461 26.51150391 7.30664062 28.30859375 C7.20065206 31.20561451 7.09858362 34.10271935 7 37 C4.69 37 2.38 37 0 37 C0 24.79 0 12.58 0 0 Z " fill="#000000" transform="translate(832,1046)"/>
<path d="M0 0 C3.77260108 1.47153082 5.74673253 3.6200988 8 7 C8.125 9.6875 8.125 9.6875 8 12 C4.6875 12.3125 4.6875 12.3125 1 12 C0.525625 11.175 0.05125 10.35 -0.4375 9.5 C-0.953125 8.675 -1.46875 7.85 -2 7 C-4.78844835 6.52596378 -7.14857943 6.766277 -10 7 C-10.66 8.32 -11.32 9.64 -12 11 C-9.31303984 14.39821432 -6.02739361 15.19109708 -2 16.5 C5.88357178 19.06216083 5.88357178 19.06216083 8 22 C9.04962807 25.97359198 9.22037268 28.32591887 7.9375 32.25 C5.50978045 35.69579549 4.01365253 36.68644099 0 38 C-5.97845712 38.69991693 -10.91238211 38.51287902 -16 35 C-19.25492571 31.65941835 -20 30.77187019 -20 26 C-17.69 26 -15.38 26 -13 26 C-12.71125 26.639375 -12.4225 27.27875 -12.125 27.9375 C-11.17176549 30.15206079 -11.17176549 30.15206079 -9 31 C-3.67032792 31.34092041 -3.67032792 31.34092041 1 29 C1.25030977 26.41619823 1.25030977 26.41619823 1 24 C0.21496094 23.82984375 -0.57007813 23.6596875 -1.37890625 23.484375 C-13.3801088 20.71599944 -13.3801088 20.71599944 -18 17 C-19.41126221 14.34250221 -19.97104541 12.00548647 -20 9 C-18.83438311 5.36601792 -17.83250432 3.6070344 -14.75 1.359375 C-9.99867399 -0.98929183 -5.17612744 -0.64438934 0 0 Z " fill="#000000" transform="translate(1199,1046)"/>
<path d="M0 0 C2.64 0 5.28 0 8 0 C8.44653931 1.21901001 8.44653931 1.21901001 8.90209961 2.46264648 C10.00503129 5.46948679 11.11043042 8.47540468 12.2175293 11.48071289 C12.69671624 12.78308093 13.17490993 14.08581485 13.65209961 15.38891602 C14.33708338 17.25892881 15.02590537 19.12753427 15.71484375 20.99609375 C16.12855225 22.12200928 16.54226074 23.2479248 16.96850586 24.40795898 C17.75837567 26.8902246 17.75837567 26.8902246 19 28 C22.3 18.76 25.6 9.52 29 0 C31.64 0 34.28 0 37 0 C34.45181761 7.99242189 31.40263918 15.76829514 28.3125 23.5625 C27.79600607 24.87035668 27.27972841 26.17829879 26.76367188 27.48632812 C25.5112318 30.65839598 24.25662243 33.82958721 23 37 C20.03 37 17.06 37 14 37 C12.0040449 31.89219012 10.01027283 26.78353578 8.01855469 21.67407227 C7.34012427 19.93457797 6.66108881 18.19531952 5.98144531 16.45629883 C5.00688559 13.96236355 4.03447672 11.46759916 3.0625 8.97265625 C2.75626709 8.19036148 2.45003418 7.40806671 2.13452148 6.60206604 C0 1.11387171 0 1.11387171 0 0 Z " fill="#000000" transform="translate(249,1046)"/>
<path d="M0 0 C2.31 0 4.62 0 7 0 C7 2.97 7 5.94 7 9 C9.97 9 12.94 9 16 9 C16 10.98 16 12.96 16 15 C13.03 15 10.06 15 7 15 C7.33 22.92 7.66 30.84 8 39 C10.64 39.66 13.28 40.32 16 41 C16 42.65 16 44.3 16 46 C14.2507786 46.08142927 12.50045458 46.13938541 10.75 46.1875 C9.77546875 46.22230469 8.8009375 46.25710938 7.796875 46.29296875 C4.57223082 45.95519178 3.29209203 45.25529239 1 43 C-0.0592918 39.82212459 -0.11458939 37.57411057 -0.09765625 34.23828125 C-0.09443359 33.12001953 -0.09121094 32.00175781 -0.08789062 30.84960938 C-0.07951172 29.68236328 -0.07113281 28.51511719 -0.0625 27.3125 C-0.05798828 26.13365234 -0.05347656 24.95480469 -0.04882812 23.74023438 C-0.03703273 20.82677211 -0.0205727 17.91341137 0 15 C-1.65 15 -3.3 15 -5 15 C-5 13.02 -5 11.04 -5 9 C-3.35 9 -1.7 9 0 9 C0 6.03 0 3.06 0 0 Z " fill="#000000" transform="translate(1019,1037)"/>
<path d="M0 0 C2.31 0 4.62 0 7 0 C7 2.97 7 5.94 7 9 C9.97 9 12.94 9 16 9 C16 10.98 16 12.96 16 15 C13.03 15 10.06 15 7 15 C7.33 22.92 7.66 30.84 8 39 C10.64 39.66 13.28 40.32 16 41 C16 42.65 16 44.3 16 46 C14.2507786 46.08142927 12.50045458 46.13938541 10.75 46.1875 C9.77546875 46.22230469 8.8009375 46.25710938 7.796875 46.29296875 C4.57223082 45.95519178 3.29209203 45.25529239 1 43 C-0.0592918 39.82212459 -0.11458939 37.57411057 -0.09765625 34.23828125 C-0.09443359 33.12001953 -0.09121094 32.00175781 -0.08789062 30.84960938 C-0.07951172 29.68236328 -0.07113281 28.51511719 -0.0625 27.3125 C-0.05798828 26.13365234 -0.05347656 24.95480469 -0.04882812 23.74023438 C-0.03703273 20.82677211 -0.0205727 17.91341137 0 15 C-1.65 15 -3.3 15 -5 15 C-5 13.02 -5 11.04 -5 9 C-3.35 9 -1.7 9 0 9 C0 6.03 0 3.06 0 0 Z " fill="#000000" transform="translate(398,1037)"/>
<path d="M0 0 C2.31 0 4.62 0 7 0 C7 12.21 7 24.42 7 37 C4.69 37 2.38 37 0 37 C0 24.79 0 12.58 0 0 Z " fill="#000000" transform="translate(1002,1046)"/>
<path d="M0 0 C2.31 0 4.62 0 7 0 C7 12.21 7 24.42 7 37 C4.69 37 2.38 37 0 37 C0 24.79 0 12.58 0 0 Z " fill="#000000" transform="translate(816,1046)"/>
<path d="M0 0 C2.31 0 4.62 0 7 0 C7 12.21 7 24.42 7 37 C4.69 37 2.38 37 0 37 C0 24.79 0 12.58 0 0 Z " fill="#000000" transform="translate(291,1046)"/>
<path d="M0 0 C3.125 0.375 3.125 0.375 6 1 C6.625 3.3125 6.625 3.3125 7 6 C6.01 7.485 6.01 7.485 5 9 C2.5 9.3125 2.5 9.3125 0 9 C-2 7 -2 7 -2.25 4.5 C-2 2 -2 2 0 0 Z " fill="#000000" transform="translate(1003,1032)"/>
<path d="M0 0 C3.125 0.375 3.125 0.375 6 1 C6.625 3.3125 6.625 3.3125 7 6 C6.01 7.485 6.01 7.485 5 9 C2.5 9.3125 2.5 9.3125 0 9 C-2 7 -2 7 -2.25 4.5 C-2 2 -2 2 0 0 Z " fill="#000000" transform="translate(817,1032)"/>
<path d="M0 0 C3.125 0.375 3.125 0.375 6 1 C6.625 3.3125 6.625 3.3125 7 6 C6.01 7.485 6.01 7.485 5 9 C2.5 9.3125 2.5 9.3125 0 9 C-2 7 -2 7 -2.25 4.5 C-2 2 -2 2 0 0 Z " fill="#000000" transform="translate(292,1032)"/>
</svg>
